<svg width="24" height="24" viewBox="0 0 24 24" fill="none" xmlns="http://www.w3.org/2000/svg">
<circle cx="12" cy="12" r="9" stroke="#262F56" stroke-width="1.8"/>
<path d="M10.459 9.94112C10.459 9.34702 10.916 8.97489 11.5362 8.90307V10.9988C11.4709 10.9857 11.4122 10.9661 11.3534 10.9465C10.7593 10.7507 10.459 10.4112 10.459 9.94112ZM13.7233 14.015C13.7233 14.6548 13.2337 15.0792 12.5416 15.1379V12.8855C12.5873 12.8986 12.633 12.9116 12.6722 12.9182C13.4034 13.1206 13.7233 13.4796 13.7233 14.015ZM12.5547 17.3772L12.5482 16.5481C14.337 16.3783 15.473 15.3925 15.473 13.8387C15.473 12.2588 14.4088 11.5929 13.0966 11.3121L12.5416 11.1946V8.91613C13.2337 9.02712 13.6188 9.54941 13.6384 10.0717H15.3098C15.2836 8.71374 14.2195 7.68222 12.5677 7.50595V6.65723H11.5101V7.49942C9.93017 7.64305 8.68973 8.51136 8.68973 10.0782C8.68973 11.5602 9.76043 12.3175 10.9748 12.5852L11.5362 12.7093V15.1379C10.7005 15.0269 10.2631 14.5242 10.2305 13.9236H8.51999C8.53305 15.1314 9.3426 16.4045 11.5036 16.5611L11.497 17.3772H12.5547Z" fill="#262F56"/>
</svg>
