<svg width="24" height="24" viewBox="0 0 24 24" fill="none" xmlns="http://www.w3.org/2000/svg">
<path fill-rule="evenodd" clip-rule="evenodd" d="M10 0.599976C8.12223 0.599976 6.6 2.12221 6.6 3.99998V4.09999C6.6 4.65227 6.15228 5.09999 5.6 5.09999H3.76556C2.30302 5.09999 1.06936 6.18904 0.887953 7.64029L0.322094 12.1672C0.143088 13.5992 1.04432 14.9449 2.43666 15.3247L10.7107 17.5812C11.5548 17.8114 12.4452 17.8114 13.2893 17.5812L21.5633 15.3247C22.9557 14.945 23.8569 13.5992 23.6779 12.1672L23.112 7.64029C22.9306 6.18904 21.697 5.09999 20.2344 5.09999H18.4C17.8477 5.09999 17.4 4.65227 17.4 4.09999V3.99998C17.4 2.12221 15.8778 0.599976 14 0.599976H10ZM14.6 5.09999C15.1523 5.09999 15.6 4.65227 15.6 4.09999V3.99998C15.6 3.11632 14.8837 2.39998 14 2.39998H10C9.11634 2.39998 8.4 3.11632 8.4 3.99998V4.09999C8.4 4.65227 8.84772 5.09999 9.4 5.09999H14.6ZM2.67405 7.86355C2.74286 7.31308 3.2108 6.89999 3.76556 6.89999H20.2344C20.7892 6.89999 21.2571 7.31308 21.3259 7.86355L21.8918 12.3904C21.9597 12.9336 21.6178 13.4441 21.0897 13.5881L12.8157 15.8447C12.2816 15.9903 11.7184 15.9903 11.1843 15.8447L2.91027 13.5881C2.38214 13.4441 2.0403 12.9336 2.10819 12.3904L2.67405 7.86355Z" fill="#262F56"/>
<path d="M2 14.5V20C2 21.1046 2.89543 22 4 22H20C21.1046 22 22 21.1046 22 20V14.5" stroke="#262F56" stroke-width="1.8" stroke-linecap="round" stroke-linejoin="round"/>
</svg>
