<svg width="24" height="24" viewBox="0 0 24 24" fill="none" xmlns="http://www.w3.org/2000/svg">
<path fill-rule="evenodd" clip-rule="evenodd" d="M9.99998 1.60001C8.12222 1.60001 6.59998 3.12224 6.59998 5.00001C6.59998 5.55229 6.15227 6.00001 5.59998 6.00001H3.76555C2.7569 6.00001 1.9061 6.75108 1.781 7.75194L1.21514 12.2788C1.09168 13.2664 1.71323 14.1945 2.67346 14.4564L4.66665 15L10.9475 16.713C11.5504 16.8774 12.1823 16.898 12.7924 16.7746C12.8796 16.757 12.9663 16.7365 13.0525 16.713L19.3333 15L21.3265 14.4564C22.2867 14.1945 22.9083 13.2664 22.7848 12.2788L22.219 7.75194C22.0939 6.75108 21.2431 6.00001 20.2344 6.00001H18.4C17.8477 6.00001 17.4 5.55229 17.4 5.00001C17.4 3.12224 15.8778 1.60001 14 1.60001H9.99998ZM14.6 6.00001C15.1523 6.00001 15.6 5.55229 15.6 5.00001C15.6 4.11635 14.8836 3.40001 14 3.40001H9.99998C9.11633 3.40001 8.39998 4.11635 8.39998 5.00001C8.39998 5.55229 8.8477 6.00001 9.39998 6.00001H14.6ZM3.02512 16.1071C2.60504 15.9925 2.1322 16.1607 2.04271 16.5869C2.01471 16.7202 1.99999 16.8584 1.99999 17V20C1.99999 21.1046 2.89542 22 3.99999 22H20C21.1046 22 22 21.1046 22 20V17C22 16.8584 21.9853 16.7202 21.9573 16.5869C21.8678 16.1607 21.3949 15.9925 20.9748 16.1071L13.4471 18.1601C12.4997 18.4185 11.5003 18.4185 10.5528 18.1601L3.02512 16.1071Z" fill="#2456E8"/>
</svg>
