<svg version="1.0" xmlns="http://www.w3.org/2000/svg"
 width="128" height="128" viewBox="0 0 128 128"
 preserveAspectRatio="xMidYMid meet">

<g transform="translate(0.000000,128.000000) scale(0.100000,-0.100000)"
fill="#000000" stroke="none">
<path d="M1043 1265 c-36 -15 -63 -60 -63 -104 0 -24 -10 -37 -61 -74 -58 -44
-62 -45 -117 -40 -57 5 -58 5 -91 -32 -28 -32 -32 -44 -30 -81 3 -43 0 -47
-66 -114 -63 -63 -73 -70 -109 -70 -22 0 -54 -5 -71 -11 -27 -10 -38 -8 -83
15 -41 21 -52 31 -52 51 0 13 -14 40 -31 60 -27 31 -37 35 -79 35 -42 0 -52
-4 -79 -35 -23 -27 -31 -45 -31 -74 0 -77 90 -132 158 -97 30 15 34 15 87 -11
40 -20 55 -33 55 -48 0 -66 86 -121 150 -95 45 19 72 62 69 110 -3 38 1 44 71
115 65 65 77 73 102 68 62 -12 128 44 128 110 0 31 7 40 61 80 58 44 62 45
117 40 57 -5 59 -5 90 31 52 59 39 136 -29 172 -34 17 -55 17 -96 -1z m76 -79
c16 -20 -3 -56 -29 -56 -26 0 -45 36 -29 56 6 8 19 14 29 14 10 0 23 -6 29
-14z m-299 -227 c9 -15 8 -24 -1 -35 -28 -33 -80 -3 -59 35 6 12 19 21 30 21
11 0 24 -9 30 -21z m-600 -150 c9 -15 8 -24 -1 -35 -28 -33 -80 -3 -59 35 6
12 19 21 30 21 11 0 24 -9 30 -21z m300 -150 c9 -15 8 -24 -1 -35 -28 -33 -80
-3 -59 35 6 12 19 21 30 21 11 0 24 -9 30 -21z"/>
<path d="M1003 900 l-23 -9 0 -406 0 -405 -40 0 -40 0 0 288 c0 211 -3 291
-12 300 -16 16 -180 16 -196 0 -9 -9 -12 -89 -12 -300 l0 -288 -40 0 -40 0 0
138 c0 94 -4 142 -12 150 -16 16 -180 16 -196 0 -8 -8 -12 -56 -12 -150 l0
-138 -40 0 -40 0 0 213 c0 152 -3 216 -12 225 -16 16 -180 16 -196 0 -9 -9
-12 -72 -12 -223 l0 -211 -37 -10 c-40 -10 -54 -34 -33 -59 19 -22 1241 -22
1260 0 21 25 7 49 -33 59 l-37 10 0 403 0 403 -26 10 c-31 12 -141 12 -171 0z
m127 -445 l0 -375 -40 0 -40 0 0 375 0 375 40 0 40 0 0 -375z m-300 -115 l0
-260 -40 0 -40 0 0 260 0 260 40 0 40 0 0 -260z m-600 -75 l0 -185 -40 0 -40
0 0 185 0 185 40 0 40 0 0 -185z m300 -75 l0 -110 -40 0 -40 0 0 110 0 110 40
0 40 0 0 -110z"/>
</g>
</svg>
