<svg width="24" height="24" viewBox="0 0 24 24" fill="none" xmlns="http://www.w3.org/2000/svg">
<path d="M8.79997 3.34749L8.34997 2.56807V2.56807L8.79997 3.34749ZM11.1683 2.20618L10.9812 1.32585L11.1683 2.20618ZM6.10671 4.90245L6.55671 5.68187L6.10671 4.90245ZM3.93413 6.38285L4.60296 6.98507H4.60296L3.93413 6.38285ZM3.10248 7.82331L3.95843 8.10142V8.10142L3.10248 7.82331ZM3.10248 16.1766L2.24653 16.4548H2.24653L3.10248 16.1766ZM3.93413 17.6171L4.60296 17.0149H4.60296L3.93413 17.6171ZM6.10671 19.0975L6.55671 18.3181L6.10671 19.0975ZM8.79997 20.6525L9.3622 19.9497L9.30899 19.9071L9.24997 19.873L8.79997 20.6525ZM8.79999 20.6525L8.23776 21.3552L8.29097 21.3978L8.34999 21.4319L8.79999 20.6525ZM11.1683 21.7938L10.9812 22.6741L10.9812 22.6741L11.1683 21.7938ZM12.8316 21.7938L13.0187 22.6741L13.0187 22.6741L12.8316 21.7938ZM15.2 20.6525L14.75 19.873L15.2 20.6525ZM17.8932 19.0975L17.4432 18.3181L17.8932 19.0975ZM20.0658 17.6171L19.397 17.0149V17.0149L20.0658 17.6171ZM20.8975 16.1766L21.7534 16.4548V16.4548L20.8975 16.1766ZM20.8975 7.82331L21.7534 7.54519V7.54519L20.8975 7.82331ZM20.0658 6.38285L19.397 6.98507L19.397 6.98507L20.0658 6.38285ZM17.8932 4.90245L18.3432 4.12303V4.12303L17.8932 4.90245ZM15.2 3.34749L14.75 4.12692V4.12692L15.2 3.34749ZM12.8316 2.20618L12.6445 3.08652L12.8316 2.20618ZM9.24997 4.12692C10.4683 3.4235 10.9083 3.18156 11.3554 3.08652L10.9812 1.32585C10.189 1.49424 9.46317 1.92537 8.34997 2.56807L9.24997 4.12692ZM6.55671 5.68187L9.24997 4.12692L8.34997 2.56807L5.65671 4.12303L6.55671 5.68187ZM4.60296 6.98507C4.90885 6.64534 5.33836 6.38529 6.55671 5.68187L5.65671 4.12303C4.54351 4.76573 3.80724 5.17874 3.2653 5.78063L4.60296 6.98507ZM3.95843 8.10142C4.09268 7.68825 4.31227 7.30791 4.60296 6.98507L3.2653 5.78063C2.80582 6.29094 2.45873 6.89212 2.24653 7.54519L3.95843 8.10142ZM3.80671 10.445C3.80671 9.03818 3.81717 8.5362 3.95843 8.10142L2.24653 7.54519C1.99625 8.31547 2.00671 9.15961 2.00671 10.445H3.80671ZM3.80671 13.5549L3.80671 10.445H2.00671L2.00671 13.5549H3.80671ZM3.95843 15.8985C3.81717 15.4637 3.80671 14.9618 3.80671 13.5549H2.00671C2.00671 14.8403 1.99625 15.6845 2.24653 16.4548L3.95843 15.8985ZM4.60296 17.0149C4.31227 16.692 4.09268 16.3117 3.95843 15.8985L2.24653 16.4548C2.45873 17.1078 2.80582 17.709 3.2653 18.2193L4.60296 17.0149ZM6.55671 18.3181C5.33836 17.6147 4.90885 17.3546 4.60296 17.0149L3.2653 18.2193C3.80724 18.8212 4.54351 19.2342 5.65671 19.8769L6.55671 18.3181ZM9.24997 19.873L6.55671 18.3181L5.65671 19.8769L8.34997 21.4319L9.24997 19.873ZM9.36221 19.9497L9.3622 19.9497L8.23775 21.3552L8.23776 21.3552L9.36221 19.9497ZM11.3554 20.9134C10.9083 20.8184 10.4683 20.5764 9.24999 19.873L8.34999 21.4319C9.46318 22.0746 10.189 22.5057 10.9812 22.6741L11.3554 20.9134ZM12.6445 20.9134C12.2196 21.0037 11.7804 21.0037 11.3554 20.9134L10.9812 22.6741C11.6529 22.8169 12.3471 22.8169 13.0187 22.6741L12.6445 20.9134ZM14.75 19.873C13.5316 20.5764 13.0917 20.8184 12.6445 20.9134L13.0187 22.6741C13.811 22.5057 14.5368 22.0746 15.65 21.4319L14.75 19.873ZM17.4432 18.3181L14.75 19.873L15.65 21.4319L18.3432 19.8769L17.4432 18.3181ZM19.397 17.0149C19.0911 17.3546 18.6616 17.6147 17.4432 18.3181L18.3432 19.8769C19.4564 19.2342 20.1927 18.8212 20.7346 18.2193L19.397 17.0149ZM20.0415 15.8985C19.9073 16.3117 19.6877 16.692 19.397 17.0149L20.7346 18.2193C21.1941 17.709 21.5412 17.1078 21.7534 16.4548L20.0415 15.8985ZM20.1932 13.5549C20.1932 14.9618 20.1828 15.4637 20.0415 15.8985L21.7534 16.4548C22.0037 15.6845 21.9932 14.8403 21.9932 13.5549H20.1932ZM20.1932 10.445V13.5549H21.9932V10.445H20.1932ZM20.0415 8.10142C20.1828 8.5362 20.1932 9.03818 20.1932 10.445H21.9932C21.9932 9.15961 22.0037 8.31547 21.7534 7.54519L20.0415 8.10142ZM19.397 6.98507C19.6877 7.30791 19.9073 7.68825 20.0415 8.10142L21.7534 7.54519C21.5412 6.89212 21.1941 6.29094 20.7346 5.78063L19.397 6.98507ZM17.4432 5.68187C18.6616 6.38529 19.0911 6.64534 19.397 6.98507L20.7346 5.78063C20.1927 5.17874 19.4564 4.76573 18.3432 4.12303L17.4432 5.68187ZM14.75 4.12692L17.4432 5.68187L18.3432 4.12303L15.65 2.56807L14.75 4.12692ZM12.6445 3.08652C13.0917 3.18156 13.5316 3.4235 14.75 4.12692L15.65 2.56807C14.5368 1.92537 13.811 1.49424 13.0187 1.32585L12.6445 3.08652ZM11.3554 3.08652C11.7804 2.99619 12.2196 2.99619 12.6445 3.08652L13.0187 1.32585C12.3471 1.18308 11.6529 1.18308 10.9812 1.32585L11.3554 3.08652ZM14.6 12C14.6 13.4359 13.4359 14.6 12 14.6V16.4C14.4301 16.4 16.4 14.43 16.4 12H14.6ZM12 9.39996C13.4359 9.39996 14.6 10.564 14.6 12H16.4C16.4 9.56991 14.4301 7.59996 12 7.59996V9.39996ZM9.4 12C9.4 10.564 10.5641 9.39996 12 9.39996V7.59996C9.56995 7.59996 7.6 9.56991 7.6 12H9.4ZM12 14.6C10.5641 14.6 9.4 13.4359 9.4 12H7.6C7.6 14.43 9.56995 16.4 12 16.4V14.6Z" fill="#2456E8"/>
</svg>
