<svg version="1.0" xmlns="http://www.w3.org/2000/svg"
 width="128" height="128" viewBox="0 0 128 128"
 preserveAspectRatio="xMidYMid meet">

<g transform="translate(0.000000,128.000000) scale(0.100000,-0.100000)"
fill="#000000" stroke="none">
<path d="M683 1269 c-10 -10 -13 -82 -13 -290 0 -239 2 -280 16 -293 23 -24
565 -24 584 -1 10 13 11 32 2 96 -32 223 -166 389 -379 466 -79 29 -193 41
-210 22z m188 -93 c104 -36 196 -109 258 -203 34 -51 71 -158 71 -204 l0 -29
-227 2 -228 3 -3 228 -2 227 32 0 c18 0 63 -11 99 -24z"/>
<path d="M430 1124 c-96 -25 -180 -74 -257 -149 -281 -276 -204 -744 149 -914
168 -81 336 -80 504 1 91 44 206 157 251 248 55 110 81 258 51 288 -9 9 -82
12 -265 12 l-253 0 0 253 c0 183 -3 256 -12 265 -16 16 -100 14 -168 -4z m108
-318 l2 -257 26 -9 c14 -6 133 -10 264 -10 l240 0 -6 -32 c-26 -155 -134 -303
-273 -373 -101 -51 -261 -65 -361 -31 -217 73 -355 259 -353 477 2 200 108
365 289 451 57 27 136 48 159 44 6 -2 11 -99 13 -260z"/>
</g>
</svg>
