<svg width="24" height="24" viewBox="0 0 24 24" fill="none" xmlns="http://www.w3.org/2000/svg">
<path d="M11 5C11 4.44772 10.5509 3.99426 10.002 4.05549C8.57508 4.2147 7.20174 4.71371 5.99987 5.51677C4.51983 6.50571 3.36627 7.91131 2.68508 9.55585C2.0039 11.2004 1.82567 13.01 2.17293 14.7558C2.5202 16.5016 3.37737 18.1053 4.63604 19.364C5.89471 20.6226 7.49836 21.4798 9.24419 21.8271C10.99 22.1743 12.7996 21.9961 14.4442 21.3149C16.0887 20.6337 17.4943 19.4802 18.4832 18.0001C19.2863 16.7983 19.7853 15.4249 19.9445 13.998C20.0057 13.4491 19.5523 13 19 13L12 13C11.4477 13 11 12.5523 11 12L11 5Z" fill="#262F56"/>
<path d="M21.5 11.5C22.0523 11.5 22.5052 11.0512 22.45 10.5017C22.3526 9.53092 22.1135 8.57783 21.7388 7.67317C21.2362 6.45991 20.4997 5.35752 19.5711 4.42893C18.6425 3.50035 17.5401 2.76375 16.3268 2.2612C15.4222 1.88648 14.4691 1.64736 13.4983 1.54996C12.9488 1.49482 12.5 1.94772 12.5 2.5L12.5 10.5C12.5 11.0523 12.9477 11.5 13.5 11.5L21.5 11.5Z" fill="#262F56"/>
</svg>
