<svg id="Capa_1" enable-background="new 0 0 512 512" height="512" viewBox="0 0 512 512" width="512" xmlns="http://www.w3.org/2000/svg"><g><path d="m439.819 11.132c-40.497-11.141-84.53-14.086-120.808-8.082-47.66 7.889-81.687 30.882-98.471 66.5l-24.172 34.898-41.643 12.806c-2.358.726-4.209 2.564-4.95 4.918-.74 2.354-.276 4.921 1.241 6.866l27.127 34.762.334 41.384-128.774 230.071c-.147.264-.278.536-.394.815-3.841 9.358-6.795 27.454 16.584 43.5 24.92 17.105 70.525 26.317 116.702 30.188 25.58 2.144 51.283 2.689 76.937 1.893 7.387-.229 14.772-.575 22.147-1.061 19.136-1.261 38.35-3.482 55.999-7.122 16.195-3.34 30.276-7.258 36.791-9.551 13.72-4.829 25.038-10.752 32.618-17.917 12.4-11.722 14.358-26.238 5.518-40.883l-71.77-125.916c-2.051-3.599-6.631-4.853-10.23-2.802s-4.854 6.631-2.802 10.23l60.968 106.965c-31.97-20.692-60.8-42.09-86.038-63.851 3.664-5.924 5.631-12.751 5.635-19.884.007-10.207-3.992-19.805-11.272-27.037-12.86-12.718-32.618-14.505-47.412-5.386-29.58-33.977-48.465-66.693-55.041-95.338l35.066-11.89 39.213 13.107 42.22 74.079c1.383 2.427 3.916 3.788 6.523 3.788 1.259 0 2.535-.317 3.707-.985 3.599-2.051 4.854-6.632 2.802-10.23l-42.728-74.967-1.497-41.469 25.488-34.665c1.442-1.961 1.843-4.501 1.074-6.81-.768-2.31-2.609-4.103-4.939-4.81l-42.342-12.846-20.69-28.08c51.683-21.924 135.902-25.22 177.944 51.182 5.878 10.677 12.299 16.069 19.119 16.069.783 0 1.572-.071 2.365-.213 8.231-1.477 13.555-9.934 15.825-25.139l10.862-72.955c3.591-24.375-8.031-29.522-24.836-34.132zm-376.793 431.031 38.97-69.624c4.127 9.202 9.969 19.359 17.747 30.892-.522.465-1.035.943-1.537 1.441-7.275 7.2-11.281 16.78-11.281 26.977 0 10.203 4.011 19.788 11.281 26.977 7.483 7.435 17.311 11.152 27.14 11.151 8.382 0 16.758-2.714 23.68-8.121 13.973 13.514 28.318 25.278 42.165 34.653-61.514-2.378-113.443-13.269-136.81-29.307-14.798-10.156-13.694-19.089-11.355-25.039zm98.878 6.024c-9.134 9.075-23.993 9.073-33.137-.012-4.41-4.362-6.84-10.16-6.84-16.324 0-6.165 2.43-11.962 6.84-16.324.005-.004.009-.008.013-.012 4.565-4.536 10.56-6.803 16.557-6.803 6.001 0 12.006 2.272 16.58 6.816 4.41 4.362 6.84 10.16 6.84 16.324-.001 6.163-2.43 11.96-6.853 16.335zm234.876 16.913c-8.386 7.927-24.029 14.734-44.873 20.001-42.007-20.384-91.361-58.738-132.553-103.098-2.817-3.035-7.564-3.212-10.6-.393-3.035 2.819-3.211 7.565-.393 10.6 37.148 40.004 80.915 75.342 120.522 97.717-25 4.315-54.823 6.824-87.195 7.059-.033 0-.066 0-.099 0-19.392-9.45-41.441-25.789-62.738-46.488 3.196-5.631 4.905-12.006 4.905-18.648 0-10.203-4.011-19.788-11.281-26.977-10.734-10.665-26.298-13.677-39.762-9.039-10.866-16.031-17.833-29.308-21.17-40.354l31.888-56.971c8.093 19.763 22.004 42.202 40.933 65.887 1.481 1.854 3.662 2.818 5.863 2.818 1.642 0 3.295-.537 4.678-1.642 3.235-2.586 3.762-7.305 1.177-10.541-22.109-27.665-36.869-53.143-42.896-73.949l30.12-53.813c9.085 28.109 27.929 58.915 55.39 90.395-4.642 6.436-7.151 14.123-7.146 22.197.007 10.193 4.007 19.769 11.265 26.964 7.476 7.41 17.299 11.115 27.13 11.115 7.921 0 15.844-2.411 22.543-7.223 31.575 27.274 68.635 53.951 110.291 79.39 1.104 5.393-.852 10.129-5.999 14.993zm-110.245-141.623c4.409 4.381 6.835 10.196 6.831 16.375-.003 6.165-2.427 11.96-6.819 16.313-9.159 9.055-24.04 9.059-33.171.006-4.398-4.359-6.822-10.154-6.825-16.319-.004-6.176 2.42-11.989 6.825-16.369 9.132-9.053 24.013-9.048 33.159-.006zm-37.904-208.174c.959 1.302 2.314 2.259 3.86 2.728l34.579 10.492-20.755 28.227c-1.001 1.362-1.513 3.024-1.452 4.714l1.267 35.105-34.062-11.385c-1.555-.519-3.235-.516-4.786.01l-33.872 11.485-.287-35.546c-.014-1.651-.571-3.252-1.587-4.554l-21.996-28.186 33.719-10.369c1.608-.495 3.004-1.516 3.961-2.899l20.002-28.877zm201.185-72.237-10.86 72.941c-1.103 7.386-2.751 10.708-3.648 12.042-1.046-.859-3.018-2.939-5.683-7.781-27.206-49.439-69.169-65.563-99.582-70.384-8.199-1.299-16.697-1.936-25.321-1.936-19.827 0-40.319 3.362-59.358 9.753 16.5-20.836 41.996-34.209 76.096-39.853 34.214-5.664 75.903-2.84 114.385 7.747 6.552 1.797 11.287 3.427 13.099 5.539.555.649 2.244 2.619.872 11.932z"/></g></svg>